<?xml version="1.0" standalone="no"?>
<!DOCTYPE svg PUBLIC "-//W3C//DTD SVG 20010904//EN"
 "http://www.w3.org/TR/2001/REC-SVG-20010904/DTD/svg10.dtd">
<svg version="1.0" xmlns="http://www.w3.org/2000/svg"
 width="1256.000000pt" height="196.000000pt" viewBox="0 0 1256.000000 196.000000"
 preserveAspectRatio="xMidYMid meet">

<g transform="translate(0.000000,196.000000) scale(0.100000,-0.100000)"
fill="#000000" stroke="none">
<path d="M9305 1766 c-258 -60 -458 -236 -540 -477 -24 -70 -29 -105 -33 -206
-5 -145 11 -234 62 -339 36 -75 142 -216 177 -235 12 -6 42 -27 67 -46 60 -46
122 -76 212 -104 97 -30 289 -33 390 -6 344 92 578 440 530 787 -6 47 -13 87
-16 89 -2 2 -32 -23 -66 -55 -183 -174 -509 -397 -803 -548 -126 -65 -158 -77
-175 -66 -9 6 25 27 101 65 306 153 729 443 897 618 l33 34 -21 55 c-39 105
-151 242 -253 311 -67 45 -168 94 -233 111 -84 23 -254 29 -329 12z"/>
<path d="M10150 1695 c-43 -13 -41 -14 50 -8 191 11 226 -52 120 -215 -31 -48
-36 -62 -23 -62 9 0 14 3 11 6 -3 3 4 16 16 29 36 38 76 127 76 168 0 40 -23
71 -66 87 -35 14 -130 11 -184 -5z"/>
<path d="M7900 1694 c-218 -39 -338 -111 -402 -242 -34 -71 -38 -210 -8 -280
49 -113 163 -178 422 -243 198 -49 260 -75 283 -119 34 -67 -9 -138 -100 -166
-69 -20 -216 -18 -307 5 -76 20 -158 56 -211 94 -18 12 -32 16 -38 10 -5 -5
-29 -54 -54 -109 l-45 -99 23 -17 c43 -33 169 -89 245 -109 109 -29 331 -37
432 -15 84 18 196 69 252 116 21 17 51 60 70 98 27 55 34 80 36 147 5 104 -21
176 -84 240 -73 73 -165 109 -432 169 -172 39 -222 72 -222 147 0 47 38 94 95
120 90 41 309 18 436 -46 26 -14 52 -25 57 -25 10 0 92 183 92 204 0 19 -144
82 -230 101 -74 16 -261 28 -310 19z"/>
<path d="M132 1248 c4 -399 6 -438 24 -499 56 -181 195 -303 394 -345 105 -22
302 -14 384 15 161 57 261 154 318 307 22 57 22 73 26 507 l3 447 -139 0 -140
0 -4 -407 c-4 -397 -5 -410 -27 -467 -47 -119 -141 -173 -285 -164 -138 9
-225 86 -255 226 -7 34 -11 190 -11 432 l0 380 -146 0 -145 0 3 -432z"/>
<path d="M1567 1673 c-4 -3 -7 -289 -7 -635 l0 -628 145 0 145 0 0 381 c0 215
4 379 9 377 5 -1 77 -86 162 -188 276 -333 342 -414 408 -492 l64 -78 124 0
123 0 0 635 0 635 -145 0 -145 0 0 -375 c0 -206 -4 -375 -8 -375 -9 0 -62 63
-442 525 -95 116 -178 213 -184 217 -14 10 -240 10 -249 1z"/>
<path d="M3028 1068 c-2 -337 -1 -623 1 -635 3 -23 6 -23 147 -23 l144 0 0
635 0 635 -144 0 -145 0 -3 -612z"/>
<path d="M3468 1675 c-3 -3 68 -178 158 -388 90 -210 182 -425 204 -477 22
-52 68 -162 103 -245 l64 -150 145 -3 c108 -2 148 1 156 10 9 12 77 164 180
408 213 505 270 638 308 723 24 54 44 105 44 113 0 11 -22 14 -114 14 -186 0
-145 50 -349 -418 -97 -224 -183 -422 -189 -440 -7 -18 -16 -31 -21 -29 -5 1
-87 189 -183 417 -95 228 -180 426 -187 440 -13 25 -14 25 -163 28 -83 1 -153
0 -156 -3z"/>
<path d="M4966 1664 c-3 -9 -6 -294 -6 -635 l0 -619 500 0 500 0 0 120 0 120
-350 0 -350 0 0 145 0 145 295 0 295 0 0 115 0 115 -295 0 -296 0 3 136 3 137
325 2 c179 1 329 3 333 3 4 1 6 53 5 115 l-3 112 -477 2 c-423 2 -477 1 -482
-13z"/>
<path d="M6188 1674 c-5 -4 -8 -290 -8 -636 l0 -628 145 0 c143 0 145 0 146
23 0 12 2 94 2 182 l2 160 136 3 136 3 121 -186 122 -185 160 0 c158 0 161 0
150 20 -6 11 -67 103 -135 204 -69 101 -125 187 -125 190 0 3 19 15 41 27 96
48 180 174 199 296 30 191 -52 371 -208 456 -111 61 -174 69 -542 74 -184 3
-338 2 -342 -3z m661 -249 c96 -34 141 -95 141 -195 0 -98 -60 -182 -148 -208
-28 -8 -277 -17 -359 -13 -10 1 -13 50 -13 209 0 115 3 212 7 215 3 4 79 7
168 7 118 0 174 -4 204 -15z"/>
<path d="M10910 1045 l0 -635 145 0 145 0 0 635 0 635 -145 0 -145 0 0 -635z"/>
<path d="M11380 1560 l0 -120 200 0 200 0 0 -515 0 -515 145 0 145 0 0 515 0
515 198 2 197 3 0 115 0 115 -542 3 -543 2 0 -120z"/>
<path d="M8609 698 c-89 -108 -120 -200 -81 -247 36 -45 150 -49 289 -9 103
29 115 51 16 26 -118 -28 -236 -35 -267 -15 -13 9 -27 26 -31 37 -11 33 23
115 80 195 30 41 52 75 50 75 -2 0 -28 -28 -56 -62z"/>
</g>
</svg>
